<svg version="1.0" xmlns="http://www.w3.org/2000/svg" width="500.000000pt" height="219.000000pt" viewBox="0 0 500.000000 219.000000" preserveAspectRatio="xMidYMid meet">
	<g transform="translate(0.000000,219.000000) scale(0.100000,-0.100000)" fill="#FFFFFF" stroke="none">
		<path d="M82 2092 c-74 -3 -83 -5 -77 -20 8 -20 18 -93 40 -287 18 -154 55
-474 80 -685 8 -74 17 -140 19 -146 3 -8 41 -11 118 -10 l113 1 7 45 c3 25 16
119 28 210 33 258 40 260 65 20 9 -91 19 -190 23 -220 l7 -55 117 -3 117 -3 5
33 c3 18 10 80 16 138 6 58 19 188 30 290 11 102 24 228 30 280 6 52 17 154
25 227 8 73 15 146 15 164 l0 31 -90 -4 c-49 -1 -93 -7 -99 -13 -5 -5 -21
-115 -35 -244 -14 -129 -30 -239 -35 -244 -11 -11 -15 22 -50 423 l-6 75 -105
-3 c-58 -2 -106 -5 -108 -7 -2 -2 -12 -106 -23 -232 -10 -125 -22 -234 -24
-242 -12 -31 -24 9 -35 114 -6 61 -18 169 -25 240 -7 72 -14 130 -14 130 -1 0
-11 0 -24 0 -12 0 -60 -1 -105 -3z" fill="#FA2F14"></path>
		<path d="M999 2088 c-15 -13 -23 -66 -50 -343 -4 -49 -22 -225 -38 -390 -17
-165 -32 -325 -33 -355 l-3 -55 101 -3 c117 -3 113 -7 115 108 2 102 9 124 42
128 46 5 57 -12 57 -92 0 -39 3 -88 6 -109 l7 -38 101 3 101 3 -3 50 c-2 28
-17 163 -33 300 -16 138 -43 371 -60 519 -16 148 -32 273 -35 278 -9 14 -258
10 -275 -4z m163 -549 c5 -78 7 -148 4 -155 -6 -15 -52 -19 -60 -6 -5 9 9 219
20 285 12 74 28 20 36 -124z" fill="#FA2F14"></path>
		<path d="M1525 2087 c-7 -17 -10 -413 -7 -809 l2 -338 115 0 115 0 0 220 c0
196 2 221 16 227 38 14 44 -21 44 -239 l0 -208 105 0 105 0 2 93 c4 164 -4
381 -15 402 -5 11 -21 30 -36 43 -20 18 -23 25 -12 29 8 3 25 17 37 30 28 30
39 140 32 312 -8 189 -35 226 -171 235 -221 15 -328 16 -332 3z m269 -203 c13
-12 16 -39 16 -127 0 -119 -6 -141 -36 -135 -17 3 -19 15 -22 128 -3 154 3
174 42 134z" fill="#FA2F14"></path>
		<path d="M2155 2088 c-3 -7 -4 -267 -3 -578 l3 -565 112 -3 112 -3 3 220 c2
121 7 223 11 227 4 5 16 3 25 -2 15 -10 18 -38 22 -225 l5 -214 108 -3 107 -3
0 231 c0 250 -4 270 -54 304 -33 21 -33 28 4 49 45 27 52 67 48 272 -2 152 -6
186 -22 218 -29 59 -54 66 -254 77 -227 12 -222 12 -227 -2z m274 -202 c8 -9
11 -55 9 -137 -3 -112 -5 -124 -22 -127 -10 -2 -22 2 -27 10 -10 15 -12 228
-3 252 8 20 28 21 43 2z" fill="#FA2F14"></path>
		<path d="M2807 2094 c-4 -4 -7 -265 -7 -581 l0 -573 115 0 115 0 -2 578 -3
577 -106 3 c-58 1 -108 -1 -112 -4z" fill="#FA2F14"></path>
		<path d="M3293 2091 c-50 -13 -79 -36 -102 -84 -20 -42 -21 -56 -21 -492 l0
-448 25 -44 c42 -70 66 -78 245 -78 174 0 203 9 247 75 l23 33 0 467 0 467
-23 34 c-39 59 -84 74 -232 76 -71 1 -145 -2 -162 -6z m174 -566 c2 -218 -1
-366 -7 -375 -7 -12 -13 -12 -27 -4 -17 10 -18 38 -21 365 -1 195 0 360 3 367
3 7 15 12 27 10 l23 -3 2 -360z" fill="#FA2F14"></path>
		<path d="M3847 2093 c-4 -3 -7 -264 -7 -580 l0 -573 115 0 115 0 0 220 c0 196
2 221 16 227 38 14 44 -21 44 -239 l0 -208 104 0 104 0 7 147 c9 168 2 306
-16 346 -7 15 -23 34 -36 42 -30 20 -29 31 6 49 40 21 51 75 51 245 0 232 -22
292 -113 310 -64 12 -381 24 -390 14z m273 -213 c6 -12 9 -68 8 -137 -3 -113
-4 -118 -25 -121 -21 -3 -22 0 -25 120 -3 119 3 158 22 158 5 0 14 -9 20 -20z" fill="#FA2F14"></path>
		<path d="M4625 2084 c-59 -18 -129 -80 -156 -139 -15 -33 -19 -65 -19 -173 0
-163 8 -182 117 -279 42 -37 101 -91 131 -119 l55 -51 5 -79 c4 -66 1 -82 -12
-93 -27 -22 -35 -3 -38 89 l-3 85 -127 3 -128 3 0 -87 c0 -117 14 -158 75
-221 79 -80 188 -104 298 -63 66 25 118 77 151 154 22 50 26 72 26 160 -1 94
-3 105 -34 166 -27 54 -47 77 -117 132 -138 110 -139 113 -139 218 0 74 3 92
16 97 23 9 30 -9 27 -73 -3 -100 -4 -99 131 -96 l116 3 0 79 c0 65 -5 90 -26
134 -64 135 -202 194 -349 150z" fill="#FA2F14"></path>
		<path d="M676 660 c-41 -13 -74 -48 -86 -89 -5 -20 -10 -103 -10 -186 0 -179
9 -207 80 -243 54 -27 101 -28 157 -3 71 33 78 57 78 261 0 190 -5 210 -59
246 -29 19 -120 27 -160 14z m79 -266 c0 -152 -2 -179 -15 -179 -13 0 -15 27
-18 170 -3 176 0 199 21 192 9 -3 12 -48 12 -183z"></path>
		<path d="M2673 649 c-65 -32 -73 -58 -73 -254 0 -193 8 -224 71 -255 48 -25
76 -25 114 -1 26 15 32 16 44 4 8 -9 27 -13 49 -11 l37 4 0 139 0 140 -80 0
-80 0 0 -40 c0 -27 4 -39 13 -37 10 2 12 -13 10 -60 -2 -48 -7 -63 -18 -63
-13 0 -15 27 -18 174 -1 108 1 178 8 185 16 16 23 0 28 -59 l5 -56 66 3 66 3
-2 52 c-3 72 -25 110 -76 134 -55 24 -112 24 -164 -2z"></path>
		<path d="M3572 664 c-12 -3 -37 -20 -56 -37 -31 -30 -34 -39 -41 -112 -4 -44
-5 -130 -2 -193 5 -101 8 -116 31 -147 43 -56 122 -69 170 -27 14 13 20 14 23
5 3 -8 22 -13 49 -13 l44 0 0 140 0 140 -80 0 -80 0 0 -39 c0 -25 5 -41 15
-45 20 -7 20 -86 0 -112 -28 -37 -35 2 -32 181 2 143 4 170 17 170 11 0 16
-15 20 -55 l5 -55 65 0 65 0 3 50 c3 56 -19 102 -62 130 -25 17 -113 27 -154
19z"></path>
		<path d="M22 398 l3 -263 90 -3 c121 -4 172 4 201 33 22 22 24 33 24 110 0 81
-2 88 -28 115 l-28 28 23 20 c19 17 23 31 23 79 0 116 -41 143 -213 143 l-97
0 2 -262z m162 166 c12 -4 16 -20 16 -55 0 -42 -3 -49 -20 -49 -18 0 -20 7
-20 55 0 30 2 55 4 55 2 0 11 -3 20 -6z m11 -264 c0 -54 -3 -65 -17 -68 -16
-3 -18 5 -18 68 0 63 2 71 18 68 14 -3 17 -14 17 -68z"></path>
		<path d="M1120 648 c0 -7 11 -60 23 -118 l23 -105 -23 -135 c-12 -74 -23 -140
-23 -146 0 -16 116 -18 127 -2 4 7 13 47 19 88 l11 75 19 -85 20 -85 62 -3
c75 -4 73 -13 28 164 l-33 131 23 109 c13 60 24 112 24 117 0 4 -27 7 -60 7
-46 0 -60 -3 -60 -15 0 -7 -5 -38 -12 -67 l-12 -53 -8 45 c-16 96 -11 90 -83
90 -46 0 -65 -4 -65 -12z"></path>
		<path d="M1660 395 l0 -266 68 3 67 3 3 263 2 262 -70 0 -70 0 0 -265z"></path>
		<path d="M2042 398 l3 -263 58 -3 57 -3 0 107 c0 59 2 105 5 102 3 -3 18 -50
34 -104 l28 -99 61 -3 62 -3 0 266 0 265 -60 0 -60 0 -1 -97 0 -98 -32 95 -32
95 -63 3 -62 3 2 -263z"></path>
		<path d="M4010 652 c0 -5 19 -72 42 -148 35 -116 43 -158 47 -254 l6 -115 63
-3 62 -3 0 93 c0 83 6 111 50 258 27 91 50 168 50 173 0 4 -29 7 -64 7 l-63 0
-12 -62 c-7 -35 -16 -76 -21 -93 l-8 -30 -1 34 c-1 19 -6 61 -13 93 l-12 58
-63 0 c-35 0 -63 -4 -63 -8z"></path>
		<path d="M4550 400 l0 -260 60 0 60 0 1 148 1 147 20 -125 c29 -186 22 -170
73 -170 36 0 45 3 45 18 0 9 5 51 11 92 6 41 14 102 19 135 6 48 8 29 9 -92
l1 -153 60 0 60 0 0 260 0 260 -90 0 c-65 0 -90 -3 -91 -12 0 -7 -6 -58 -13
-113 -14 -109 -14 -109 -37 48 l-12 77 -88 0 -89 0 0 -260z"></path>
	</g>
</svg>